<?xml version="1.0" encoding="UTF-8"?>
<svg id="_레이어_1" data-name="레이어_1" xmlns="http://www.w3.org/2000/svg" version="1.1" viewBox="0 0 483 483">
  <!-- Generator: Adobe Illustrator 30.1.0, SVG Export Plug-In . SVG Version: 2.1.1 Build 136)  -->
  <defs>
    <style>
      .st0 {
        fill: #fff;
      }
    </style>
  </defs>
  <path class="st0" d="M264.6,201.3c-3.2,24.1-7.2,46.1-12.1,65.9-4.9,19.8-10.2,37.5-16.2,52.9-6,15.4-11.8,28.2-17.5,38.3h-51.6c-2.9-5.3-5.9-11.3-9.1-18.2-3.2-6.8-6.3-14.1-9.4-21.8-3.1-7.5-5.9-15.1-8.4-23-2.5-7.8-4.6-15.6-6.1-23.3-1.8,7.5-4,15.3-6.8,23.5-2.8,8.2-5.8,16.1-9.1,23.8-3.1,7.9-6.2,15.3-9.4,22-3.2,6.7-5.9,12.4-8.1,17h-51.6c-14.3-26.7-26.3-59.8-35.9-99.3C3.9,219.6-.9,174.4-.9,123.5h48.3c0,41,3,78.2,8.9,111.7,6,33.5,13,60.5,21.2,81,4-9.3,7.8-19.7,11.6-31.4,3.7-11.7,7.2-23.8,10.2-36.4,3.1-12.3,5.6-24.7,7.4-37.2,1.9-12.4,2.8-24.2,2.8-35.2v-39.3h49.2v39c0,11,.9,22.6,2.8,34.7,1.9,12.1,4.3,24.4,7.4,36.7,3.1,12.6,6.6,24.8,10.4,36.7,3.9,11.9,7.8,23,11.7,33.4,3.1-7.7,6.4-18,9.9-30.7,3.5-12.8,6.7-27.4,9.6-44,3.1-16.7,5.6-35.1,7.6-55.2,2-20,3-41.3,3-63.8h48.3c0,27.8-1.6,53.7-4.8,77.8Z"/>
  <path class="st0" d="M424.8,126c10.3,1.7,19.4,4.8,27.1,9.4,7.7,4.4,13.9,10.6,18.5,18.7,4.6,8,6.9,18.3,6.9,30.9s-2.4,24.9-7.1,34.4c-4.7,9.5-13.8,16.1-27.3,19.8,15,2,25.4,7.6,31.2,16.7s8.8,21,8.8,35.5-2.3,24.5-6.9,33.1c-4.6,8.6-10.9,15.4-18.8,20.5-7.9,5.1-17.2,8.6-27.9,10.6-10.7,2-22.1,3-34.2,3h-41c-17,0-29.2-3.3-36.9-9.9-7.6-6.6-11.4-18.5-11.4-35.7v-143.8c0-17,3.8-28.8,11.4-35.5,7.6-6.7,19.9-10.1,36.9-10.1h38c11.5,0,22.4.8,32.7,2.5ZM369.9,161.2c-6.4,0-10.5,1.3-12.4,3.8-1.9,2.5-2.8,6.3-2.8,11.4v44.9h36.4c12.6,0,21.8-2.3,27.6-6.9,5.8-4.6,8.8-12.2,8.8-22.8s-2.9-18.3-8.8-23.1-15-7.3-27.6-7.3h-21.2ZM422.8,313.5c6.4-4.8,9.6-13.2,9.6-25.1s-3-18.7-9.1-23c-6.1-4.3-15.6-6.5-28.6-6.5h-40v47.9c0,5.3,1.4,8.9,4.1,10.9,2.8,2,6.4,3,11.1,3h22.5c13.9,0,24-2.4,30.4-7.3Z"/>
</svg>