<?xml version="1.0" encoding="UTF-8"?>
<svg id="_레이어_1" data-name="레이어_1" xmlns="http://www.w3.org/2000/svg" version="1.1" viewBox="0 0 551 551">
  <!-- Generator: Adobe Illustrator 30.1.0, SVG Export Plug-In . SVG Version: 2.1.1 Build 136)  -->
  <path d="M302,229.8c-3.7,27.5-8.2,52.6-13.8,75.2-5.5,22.6-11.7,42.7-18.5,60.3-6.8,17.6-13.5,32.2-20,43.7h-58.8c-3.3-6-6.7-12.9-10.4-20.7-3.7-7.8-7.2-16.1-10.8-24.9-3.5-8.5-6.7-17.3-9.6-26.2-2.9-8.9-5.2-17.8-7-26.6-2,8.6-4.6,17.5-7.7,26.8-3.1,9.3-6.6,18.4-10.4,27.2-3.5,9.1-7.1,17.4-10.7,25.1-3.6,7.7-6.7,14.1-9.2,19.4h-58.8c-16.3-30.4-30-68.2-40.9-113.3C4.5,250.6-1,199-1,141h55c0,46.8,3.4,89.2,10.2,127.4,6.8,38.2,14.8,69,24.1,92.4,4.5-10.6,8.9-22.5,13.2-35.8,4.3-13.3,8.2-27.1,11.7-41.5,3.5-14.1,6.3-28.2,8.5-42.4,2.1-14.2,3.2-27.6,3.2-40.2v-44.9h56.2v44.5c0,12.6,1.1,25.8,3.2,39.6,2.1,13.8,5,27.8,8.5,41.9,3.5,14.3,7.5,28.3,11.9,41.9,4.4,13.6,8.9,26.3,13.4,38.1,3.5-8.8,7.3-20.5,11.3-35.1,4-14.6,7.7-31.3,10.9-50.2,3.5-19.1,6.4-40.1,8.7-63,2.3-22.9,3.4-47.1,3.4-72.8h55.1c0,31.7-1.8,61.3-5.5,88.8Z"/>
  <path d="M484.6,143.8c11.8,1.9,22.1,5.5,30.9,10.7,8.8,5,15.8,12.1,21.1,21.3,5.3,9.2,7.9,20.9,7.9,35.3s-2.7,28.4-8.1,39.2c-5.4,10.8-15.8,18.4-31.1,22.6,17.1,2.3,29,8.6,35.6,19,6.7,10.4,10,23.9,10,40.5s-2.6,27.9-7.9,37.7c-5.3,9.8-12.4,17.6-21.5,23.4-9.1,5.8-19.7,9.8-31.9,12.1-12.2,2.3-25.2,3.4-39,3.4h-46.8c-19.4,0-33.4-3.8-42-11.3-8.7-7.5-13-21.1-13-40.7v-164c0-19.4,4.3-32.9,13-40.5,8.7-7.7,22.7-11.5,42-11.5h43.4c13.1,0,25.5.9,37.3,2.8ZM422.1,183.9c-7.3,0-12,1.5-14.1,4.3-2.1,2.9-3.2,7.2-3.2,13v51.3h41.5c14.3,0,24.8-2.6,31.5-7.9,6.7-5.3,10-13.9,10-26s-3.3-20.9-10-26.4c-6.7-5.5-17.2-8.3-31.5-8.3h-24.1ZM482.4,357.8c7.3-5.5,10.9-15.1,10.9-28.7s-3.5-21.3-10.4-26.2c-6.9-4.9-17.8-7.4-32.6-7.4h-45.6v54.7c0,6,1.6,10.2,4.7,12.4,3.1,2.3,7.3,3.4,12.6,3.4h25.6c15.8,0,27.4-2.8,34.7-8.3Z"/>
</svg>